<svg xmlns="http://www.w3.org/2000/svg" width="16.5" height="16.5" viewBox="0 0 16.5 16.5">
  <g id="preferences-circle" transform="translate(0.25 0.25)">
    <path id="Shape" d="M0,0H4" transform="translate(11.5 3.5)" fill="none" stroke="#fff" stroke-linecap="round" stroke-linejoin="round" stroke-miterlimit="10" stroke-width="1.5"/>
    <path id="Shape-2" data-name="Shape" d="M0,0H2" transform="translate(0.5 3.5)" fill="none" stroke="#fff" stroke-linecap="round" stroke-linejoin="round" stroke-miterlimit="10" stroke-width="1.5"/>
    <path id="Shape-3" data-name="Shape" d="M4,0H0" transform="translate(0.5 12.5)" fill="none" stroke="#fff" stroke-linecap="round" stroke-linejoin="round" stroke-miterlimit="10" stroke-width="1.5"/>
    <path id="Shape-4" data-name="Shape" d="M2,0H0" transform="translate(13.5 12.5)" fill="none" stroke="#fff" stroke-linecap="round" stroke-linejoin="round" stroke-miterlimit="10" stroke-width="1.5"/>
    <path id="Oval" d="M3,0A3,3,0,1,1,0,3,3,3,0,0,1,3,0Z" transform="translate(2.5 0.5)" fill="none" stroke="#fff" stroke-linecap="round" stroke-linejoin="round" stroke-miterlimit="10" stroke-width="1.5"/>
    <path id="Oval-2" data-name="Oval" d="M3,0A3,3,0,1,1,0,3,3,3,0,0,1,3,0Z" transform="translate(7.5 9.5)" fill="none" stroke="#fff" stroke-linecap="round" stroke-linejoin="round" stroke-miterlimit="10" stroke-width="1.5"/>
  </g>
</svg>
